<svg width="1160" height="323" viewBox="0 0 1160 323" fill="none" xmlns="http://www.w3.org/2000/svg">
<g filter="url(#filter0_d_4359_11)">
<path d="M350.308 139L371.745 67H392.62L360.933 158H347.183L350.308 139ZM330.558 67L351.933 139L355.183 158H341.308L309.808 67H330.558ZM429.78 142.75V112.625C429.78 110.458 429.426 108.604 428.718 107.062C428.009 105.479 426.905 104.25 425.405 103.375C423.947 102.5 422.051 102.062 419.718 102.062C417.718 102.062 415.988 102.417 414.53 103.125C413.072 103.792 411.947 104.771 411.155 106.062C410.363 107.312 409.968 108.792 409.968 110.5H391.968C391.968 107.625 392.634 104.896 393.968 102.312C395.301 99.7292 397.238 97.4583 399.78 95.5C402.322 93.5 405.343 91.9375 408.843 90.8125C412.384 89.6875 416.343 89.125 420.718 89.125C425.968 89.125 430.634 90 434.718 91.75C438.801 93.5 442.009 96.125 444.343 99.625C446.718 103.125 447.905 107.5 447.905 112.75V141.688C447.905 145.396 448.134 148.438 448.593 150.812C449.051 153.146 449.718 155.188 450.593 156.938V158H432.405C431.53 156.167 430.863 153.875 430.405 151.125C429.988 148.333 429.78 145.542 429.78 142.75ZM432.155 116.812L432.28 127H422.218C419.843 127 417.78 127.271 416.03 127.812C414.28 128.354 412.843 129.125 411.718 130.125C410.593 131.083 409.759 132.208 409.218 133.5C408.718 134.792 408.468 136.208 408.468 137.75C408.468 139.292 408.822 140.688 409.53 141.938C410.238 143.146 411.259 144.104 412.593 144.812C413.926 145.479 415.488 145.812 417.28 145.812C419.988 145.812 422.343 145.271 424.343 144.188C426.343 143.104 427.884 141.771 428.968 140.188C430.093 138.604 430.676 137.104 430.718 135.688L435.468 143.312C434.801 145.021 433.884 146.792 432.718 148.625C431.593 150.458 430.155 152.188 428.405 153.812C426.655 155.396 424.551 156.708 422.093 157.75C419.634 158.75 416.718 159.25 413.343 159.25C409.051 159.25 405.155 158.396 401.655 156.688C398.197 154.938 395.447 152.542 393.405 149.5C391.405 146.417 390.405 142.917 390.405 139C390.405 135.458 391.072 132.312 392.405 129.562C393.738 126.812 395.697 124.5 398.28 122.625C400.905 120.708 404.176 119.271 408.093 118.312C412.009 117.312 416.551 116.812 421.718 116.812H432.155ZM458.94 90.375H477.003V162.062C477.003 167.062 476.086 171.292 474.253 174.75C472.419 178.208 469.773 180.833 466.315 182.625C462.857 184.417 458.669 185.312 453.753 185.312C452.211 185.312 450.711 185.229 449.253 185.062C447.753 184.896 446.211 184.625 444.628 184.25L444.69 170.438C445.69 170.604 446.669 170.729 447.628 170.812C448.544 170.938 449.482 171 450.44 171C452.315 171 453.878 170.688 455.128 170.062C456.378 169.438 457.315 168.458 457.94 167.125C458.607 165.833 458.94 164.146 458.94 162.062V90.375ZM457.503 72.75C457.503 70.125 458.419 67.9583 460.253 66.25C462.128 64.5417 464.586 63.6875 467.628 63.6875C470.711 63.6875 473.169 64.5417 475.003 66.25C476.836 67.9583 477.753 70.125 477.753 72.75C477.753 75.375 476.836 77.5417 475.003 79.25C473.169 80.9583 470.711 81.8125 467.628 81.8125C464.586 81.8125 462.128 80.9583 460.253 79.25C458.419 77.5417 457.503 75.375 457.503 72.75ZM505.475 105.125V158H487.475V90.375H504.413L505.475 105.125ZM525.85 89.9375L525.538 106.625C524.663 106.5 523.6 106.396 522.35 106.312C521.142 106.188 520.038 106.125 519.038 106.125C516.496 106.125 514.288 106.458 512.413 107.125C510.579 107.75 509.038 108.688 507.788 109.938C506.579 111.188 505.663 112.708 505.038 114.5C504.454 116.292 504.121 118.333 504.038 120.625L500.413 119.5C500.413 115.125 500.85 111.104 501.725 107.438C502.6 103.729 503.871 100.5 505.538 97.75C507.246 95 509.329 92.875 511.788 91.375C514.246 89.875 517.058 89.125 520.225 89.125C521.225 89.125 522.246 89.2083 523.288 89.375C524.329 89.5 525.183 89.6875 525.85 89.9375ZM564.885 142.75V112.625C564.885 110.458 564.531 108.604 563.823 107.062C563.114 105.479 562.01 104.25 560.51 103.375C559.052 102.5 557.156 102.062 554.823 102.062C552.823 102.062 551.093 102.417 549.635 103.125C548.177 103.792 547.052 104.771 546.26 106.062C545.468 107.312 545.073 108.792 545.073 110.5H527.073C527.073 107.625 527.739 104.896 529.073 102.312C530.406 99.7292 532.343 97.4583 534.885 95.5C537.427 93.5 540.448 91.9375 543.948 90.8125C547.489 89.6875 551.448 89.125 555.823 89.125C561.073 89.125 565.739 90 569.823 91.75C573.906 93.5 577.114 96.125 579.448 99.625C581.823 103.125 583.01 107.5 583.01 112.75V141.688C583.01 145.396 583.239 148.438 583.698 150.812C584.156 153.146 584.823 155.188 585.698 156.938V158H567.51C566.635 156.167 565.968 153.875 565.51 151.125C565.093 148.333 564.885 145.542 564.885 142.75ZM567.26 116.812L567.385 127H557.323C554.948 127 552.885 127.271 551.135 127.812C549.385 128.354 547.948 129.125 546.823 130.125C545.698 131.083 544.864 132.208 544.323 133.5C543.823 134.792 543.573 136.208 543.573 137.75C543.573 139.292 543.927 140.688 544.635 141.938C545.343 143.146 546.364 144.104 547.698 144.812C549.031 145.479 550.593 145.812 552.385 145.812C555.093 145.812 557.448 145.271 559.448 144.188C561.448 143.104 562.989 141.771 564.073 140.188C565.198 138.604 565.781 137.104 565.823 135.688L570.573 143.312C569.906 145.021 568.989 146.792 567.823 148.625C566.698 150.458 565.26 152.188 563.51 153.812C561.76 155.396 559.656 156.708 557.198 157.75C554.739 158.75 551.823 159.25 548.448 159.25C544.156 159.25 540.26 158.396 536.76 156.688C533.302 154.938 530.552 152.542 528.51 149.5C526.51 146.417 525.51 142.917 525.51 139C525.51 135.458 526.177 132.312 527.51 129.562C528.843 126.812 530.802 124.5 533.385 122.625C536.01 120.708 539.281 119.271 543.198 118.312C547.114 117.312 551.656 116.812 556.823 116.812H567.26ZM621.08 62H639.08V142.5L637.268 158H621.08V62ZM681.893 123.5V124.812C681.893 129.854 681.351 134.479 680.268 138.688C679.226 142.896 677.601 146.542 675.393 149.625C673.184 152.667 670.434 155.042 667.143 156.75C663.893 158.417 660.059 159.25 655.643 159.25C651.518 159.25 647.934 158.417 644.893 156.75C641.893 155.083 639.372 152.729 637.33 149.688C635.288 146.646 633.643 143.083 632.393 139C631.143 134.917 630.205 130.458 629.58 125.625V122.75C630.205 117.917 631.143 113.458 632.393 109.375C633.643 105.292 635.288 101.729 637.33 98.6875C639.372 95.6458 641.893 93.2917 644.893 91.625C647.893 89.9583 651.434 89.125 655.518 89.125C659.976 89.125 663.851 89.9792 667.143 91.6875C670.476 93.3542 673.226 95.7292 675.393 98.8125C677.601 101.854 679.226 105.479 680.268 109.688C681.351 113.854 681.893 118.458 681.893 123.5ZM663.893 124.812V123.5C663.893 120.75 663.684 118.167 663.268 115.75C662.893 113.292 662.226 111.146 661.268 109.312C660.309 107.438 658.997 105.958 657.33 104.875C655.705 103.792 653.601 103.25 651.018 103.25C648.559 103.25 646.476 103.667 644.768 104.5C643.059 105.333 641.643 106.5 640.518 108C639.434 109.5 638.622 111.292 638.08 113.375C637.538 115.417 637.205 117.667 637.08 120.125V128.312C637.205 131.604 637.747 134.521 638.705 137.062C639.705 139.562 641.205 141.542 643.205 143C645.247 144.417 647.893 145.125 651.143 145.125C653.684 145.125 655.788 144.625 657.455 143.625C659.122 142.625 660.413 141.208 661.33 139.375C662.288 137.542 662.955 135.396 663.33 132.938C663.705 130.438 663.893 127.729 663.893 124.812ZM708.678 150.375L726.615 90.375H745.928L718.74 168.188C718.157 169.896 717.365 171.729 716.365 173.688C715.407 175.646 714.094 177.5 712.428 179.25C710.803 181.042 708.74 182.5 706.24 183.625C703.782 184.75 700.761 185.312 697.178 185.312C695.469 185.312 694.073 185.208 692.99 185C691.907 184.792 690.615 184.5 689.115 184.125V170.938C689.573 170.938 690.053 170.938 690.553 170.938C691.053 170.979 691.532 171 691.99 171C694.365 171 696.303 170.729 697.803 170.188C699.303 169.646 700.511 168.812 701.428 167.688C702.344 166.604 703.073 165.188 703.615 163.438L708.678 150.375ZM701.178 90.375L715.865 139.375L718.428 158.438L706.178 159.75L681.865 90.375H701.178ZM173.015 242.812H191.703C191.328 248.938 189.64 254.375 186.64 259.125C183.682 263.875 179.536 267.583 174.203 270.25C168.911 272.917 162.536 274.25 155.078 274.25C149.244 274.25 144.015 273.25 139.39 271.25C134.765 269.208 130.807 266.292 127.515 262.5C124.265 258.708 121.786 254.125 120.078 248.75C118.369 243.375 117.515 237.354 117.515 230.688V224.375C117.515 217.708 118.39 211.688 120.14 206.312C121.932 200.896 124.473 196.292 127.765 192.5C131.098 188.708 135.078 185.792 139.703 183.75C144.328 181.708 149.494 180.688 155.203 180.688C162.786 180.688 169.182 182.062 174.39 184.812C179.64 187.562 183.703 191.354 186.578 196.188C189.494 201.021 191.244 206.521 191.828 212.688H173.078C172.869 209.021 172.14 205.917 170.89 203.375C169.64 200.792 167.744 198.854 165.203 197.562C162.703 196.229 159.369 195.562 155.203 195.562C152.078 195.562 149.348 196.146 147.015 197.312C144.682 198.479 142.723 200.25 141.14 202.625C139.557 205 138.369 208 137.578 211.625C136.828 215.208 136.453 219.417 136.453 224.25V230.688C136.453 235.396 136.807 239.542 137.515 243.125C138.223 246.667 139.307 249.667 140.765 252.125C142.265 254.542 144.182 256.375 146.515 257.625C148.89 258.833 151.744 259.438 155.078 259.438C158.994 259.438 162.223 258.812 164.765 257.562C167.307 256.312 169.244 254.458 170.578 252C171.953 249.542 172.765 246.479 173.015 242.812ZM196.175 239.875V238.562C196.175 233.604 196.883 229.042 198.3 224.875C199.717 220.667 201.779 217.021 204.488 213.938C207.196 210.854 210.529 208.458 214.488 206.75C218.446 205 222.988 204.125 228.113 204.125C233.238 204.125 237.8 205 241.8 206.75C245.8 208.458 249.154 210.854 251.863 213.938C254.613 217.021 256.696 220.667 258.113 224.875C259.529 229.042 260.238 233.604 260.238 238.562V239.875C260.238 244.792 259.529 249.354 258.113 253.562C256.696 257.729 254.613 261.375 251.863 264.5C249.154 267.583 245.821 269.979 241.863 271.688C237.904 273.396 233.363 274.25 228.238 274.25C223.113 274.25 218.55 273.396 214.55 271.688C210.592 269.979 207.238 267.583 204.488 264.5C201.779 261.375 199.717 257.729 198.3 253.562C196.883 249.354 196.175 244.792 196.175 239.875ZM214.175 238.562V239.875C214.175 242.708 214.425 245.354 214.925 247.812C215.425 250.271 216.217 252.438 217.3 254.312C218.425 256.146 219.883 257.583 221.675 258.625C223.467 259.667 225.654 260.188 228.238 260.188C230.738 260.188 232.883 259.667 234.675 258.625C236.467 257.583 237.904 256.146 238.988 254.312C240.071 252.438 240.863 250.271 241.363 247.812C241.904 245.354 242.175 242.708 242.175 239.875V238.562C242.175 235.812 241.904 233.229 241.363 230.812C240.863 228.354 240.05 226.188 238.925 224.312C237.842 222.396 236.404 220.896 234.613 219.812C232.821 218.729 230.654 218.188 228.113 218.188C225.571 218.188 223.404 218.729 221.613 219.812C219.863 220.896 218.425 222.396 217.3 224.312C216.217 226.188 215.425 228.354 214.925 230.812C214.425 233.229 214.175 235.812 214.175 238.562ZM307.398 258.25V177H325.523V273H309.21L307.398 258.25ZM264.648 240V238.688C264.648 233.521 265.231 228.833 266.398 224.625C267.564 220.375 269.273 216.729 271.523 213.688C273.773 210.646 276.543 208.292 279.835 206.625C283.127 204.958 286.877 204.125 291.085 204.125C295.043 204.125 298.502 204.958 301.46 206.625C304.46 208.292 307.002 210.667 309.085 213.75C311.21 216.792 312.918 220.396 314.21 224.562C315.502 228.688 316.439 233.208 317.023 238.125V241C316.439 245.708 315.502 250.083 314.21 254.125C312.918 258.167 311.21 261.708 309.085 264.75C307.002 267.75 304.46 270.083 301.46 271.75C298.46 273.417 294.96 274.25 290.96 274.25C286.752 274.25 283.002 273.396 279.71 271.688C276.46 269.979 273.71 267.583 271.46 264.5C269.252 261.417 267.564 257.792 266.398 253.625C265.231 249.458 264.648 244.917 264.648 240ZM282.648 238.688V240C282.648 242.792 282.856 245.396 283.273 247.812C283.731 250.229 284.46 252.375 285.46 254.25C286.502 256.083 287.835 257.521 289.46 258.562C291.127 259.562 293.148 260.062 295.523 260.062C298.606 260.062 301.148 259.375 303.148 258C305.148 256.583 306.668 254.646 307.71 252.188C308.793 249.729 309.418 246.896 309.585 243.688V235.5C309.46 232.875 309.085 230.521 308.46 228.438C307.877 226.312 307.002 224.5 305.835 223C304.71 221.5 303.293 220.333 301.585 219.5C299.918 218.667 297.939 218.25 295.648 218.25C293.314 218.25 291.314 218.792 289.648 219.875C287.981 220.917 286.627 222.354 285.585 224.188C284.585 226.021 283.835 228.188 283.335 230.688C282.877 233.146 282.648 235.812 282.648 238.688ZM366.87 274.25C361.62 274.25 356.912 273.417 352.745 271.75C348.578 270.042 345.037 267.688 342.12 264.688C339.245 261.688 337.037 258.208 335.495 254.25C333.953 250.25 333.183 246 333.183 241.5V239C333.183 233.875 333.912 229.188 335.37 224.938C336.828 220.688 338.912 217 341.62 213.875C344.37 210.75 347.703 208.354 351.62 206.688C355.537 204.979 359.953 204.125 364.87 204.125C369.662 204.125 373.912 204.917 377.62 206.5C381.328 208.083 384.433 210.333 386.933 213.25C389.474 216.167 391.391 219.667 392.683 223.75C393.974 227.792 394.62 232.292 394.62 237.25V244.75H340.87V232.75H376.933V231.375C376.933 228.875 376.474 226.646 375.558 224.688C374.683 222.688 373.349 221.104 371.558 219.938C369.766 218.771 367.474 218.188 364.683 218.188C362.308 218.188 360.266 218.708 358.558 219.75C356.849 220.792 355.453 222.25 354.37 224.125C353.328 226 352.537 228.208 351.995 230.75C351.495 233.25 351.245 236 351.245 239V241.5C351.245 244.208 351.62 246.708 352.37 249C353.162 251.292 354.266 253.271 355.683 254.938C357.141 256.604 358.891 257.896 360.933 258.812C363.016 259.729 365.37 260.188 367.995 260.188C371.245 260.188 374.266 259.562 377.058 258.312C379.891 257.021 382.328 255.083 384.37 252.5L393.12 262C391.703 264.042 389.766 266 387.308 267.875C384.891 269.75 381.974 271.292 378.558 272.5C375.141 273.667 371.245 274.25 366.87 274.25ZM423.28 259.875L438.28 205.375H457.093L434.28 273H422.905L423.28 259.875ZM412.968 205.375L428.03 259.938L428.343 273H416.905L394.093 205.375H412.968ZM491.69 274.25C486.44 274.25 481.732 273.417 477.565 271.75C473.398 270.042 469.857 267.688 466.94 264.688C464.065 261.688 461.857 258.208 460.315 254.25C458.773 250.25 458.003 246 458.003 241.5V239C458.003 233.875 458.732 229.188 460.19 224.938C461.648 220.688 463.732 217 466.44 213.875C469.19 210.75 472.523 208.354 476.44 206.688C480.357 204.979 484.773 204.125 489.69 204.125C494.482 204.125 498.732 204.917 502.44 206.5C506.148 208.083 509.253 210.333 511.753 213.25C514.294 216.167 516.211 219.667 517.503 223.75C518.794 227.792 519.44 232.292 519.44 237.25V244.75H465.69V232.75H501.753V231.375C501.753 228.875 501.294 226.646 500.378 224.688C499.503 222.688 498.169 221.104 496.378 219.938C494.586 218.771 492.294 218.188 489.503 218.188C487.128 218.188 485.086 218.708 483.378 219.75C481.669 220.792 480.273 222.25 479.19 224.125C478.148 226 477.357 228.208 476.815 230.75C476.315 233.25 476.065 236 476.065 239V241.5C476.065 244.208 476.44 246.708 477.19 249C477.982 251.292 479.086 253.271 480.503 254.938C481.961 256.604 483.711 257.896 485.753 258.812C487.836 259.729 490.19 260.188 492.815 260.188C496.065 260.188 499.086 259.562 501.878 258.312C504.711 257.021 507.148 255.083 509.19 252.5L517.94 262C516.523 264.042 514.586 266 512.128 267.875C509.711 269.75 506.794 271.292 503.378 272.5C499.961 273.667 496.065 274.25 491.69 274.25ZM565.788 258.25V177H583.913V273H567.6L565.788 258.25ZM523.038 240V238.688C523.038 233.521 523.621 228.833 524.788 224.625C525.954 220.375 527.663 216.729 529.913 213.688C532.163 210.646 534.933 208.292 538.225 206.625C541.517 204.958 545.267 204.125 549.475 204.125C553.433 204.125 556.892 204.958 559.85 206.625C562.85 208.292 565.392 210.667 567.475 213.75C569.6 216.792 571.308 220.396 572.6 224.562C573.892 228.688 574.829 233.208 575.413 238.125V241C574.829 245.708 573.892 250.083 572.6 254.125C571.308 258.167 569.6 261.708 567.475 264.75C565.392 267.75 562.85 270.083 559.85 271.75C556.85 273.417 553.35 274.25 549.35 274.25C545.142 274.25 541.392 273.396 538.1 271.688C534.85 269.979 532.1 267.583 529.85 264.5C527.642 261.417 525.954 257.792 524.788 253.625C523.621 249.458 523.038 244.917 523.038 240ZM541.038 238.688V240C541.038 242.792 541.246 245.396 541.663 247.812C542.121 250.229 542.85 252.375 543.85 254.25C544.892 256.083 546.225 257.521 547.85 258.562C549.517 259.562 551.538 260.062 553.913 260.062C556.996 260.062 559.538 259.375 561.538 258C563.538 256.583 565.058 254.646 566.1 252.188C567.183 249.729 567.808 246.896 567.975 243.688V235.5C567.85 232.875 567.475 230.521 566.85 228.438C566.267 226.312 565.392 224.5 564.225 223C563.1 221.5 561.683 220.333 559.975 219.5C558.308 218.667 556.329 218.25 554.038 218.25C551.704 218.25 549.704 218.792 548.038 219.875C546.371 220.917 545.017 222.354 543.975 224.188C542.975 226.021 542.225 228.188 541.725 230.688C541.267 233.146 541.038 235.812 541.038 238.688ZM630.635 257.75V227.625C630.635 225.458 630.281 223.604 629.573 222.062C628.864 220.479 627.76 219.25 626.26 218.375C624.802 217.5 622.906 217.062 620.573 217.062C618.573 217.062 616.843 217.417 615.385 218.125C613.927 218.792 612.802 219.771 612.01 221.062C611.218 222.312 610.823 223.792 610.823 225.5H592.823C592.823 222.625 593.489 219.896 594.823 217.312C596.156 214.729 598.093 212.458 600.635 210.5C603.177 208.5 606.198 206.938 609.698 205.812C613.239 204.688 617.198 204.125 621.573 204.125C626.823 204.125 631.489 205 635.573 206.75C639.656 208.5 642.864 211.125 645.198 214.625C647.573 218.125 648.76 222.5 648.76 227.75V256.688C648.76 260.396 648.989 263.438 649.448 265.812C649.906 268.146 650.573 270.188 651.448 271.938V273H633.26C632.385 271.167 631.718 268.875 631.26 266.125C630.843 263.333 630.635 260.542 630.635 257.75ZM633.01 231.812L633.135 242H623.073C620.698 242 618.635 242.271 616.885 242.812C615.135 243.354 613.698 244.125 612.573 245.125C611.448 246.083 610.614 247.208 610.073 248.5C609.573 249.792 609.323 251.208 609.323 252.75C609.323 254.292 609.677 255.688 610.385 256.938C611.093 258.146 612.114 259.104 613.448 259.812C614.781 260.479 616.343 260.812 618.135 260.812C620.843 260.812 623.198 260.271 625.198 259.188C627.198 258.104 628.739 256.771 629.823 255.188C630.948 253.604 631.531 252.104 631.573 250.688L636.323 258.312C635.656 260.021 634.739 261.792 633.573 263.625C632.448 265.458 631.01 267.188 629.26 268.812C627.51 270.396 625.406 271.708 622.948 272.75C620.489 273.75 617.573 274.25 614.198 274.25C609.906 274.25 606.01 273.396 602.51 271.688C599.052 269.938 596.302 267.542 594.26 264.5C592.26 261.417 591.26 257.917 591.26 254C591.26 250.458 591.927 247.312 593.26 244.562C594.593 241.812 596.552 239.5 599.135 237.625C601.76 235.708 605.031 234.271 608.948 233.312C612.864 232.312 617.406 231.812 622.573 231.812H633.01ZM695.358 254.312C695.358 253.021 694.983 251.854 694.233 250.812C693.483 249.771 692.087 248.812 690.045 247.938C688.045 247.021 685.149 246.188 681.358 245.438C677.941 244.688 674.753 243.75 671.795 242.625C668.878 241.458 666.337 240.062 664.17 238.438C662.045 236.812 660.378 234.896 659.17 232.688C657.962 230.438 657.358 227.875 657.358 225C657.358 222.167 657.962 219.5 659.17 217C660.42 214.5 662.191 212.292 664.483 210.375C666.816 208.417 669.649 206.896 672.983 205.812C676.358 204.688 680.149 204.125 684.358 204.125C690.233 204.125 695.274 205.062 699.483 206.938C703.733 208.812 706.983 211.396 709.233 214.688C711.524 217.938 712.67 221.646 712.67 225.812H694.67C694.67 224.062 694.295 222.5 693.545 221.125C692.837 219.708 691.712 218.604 690.17 217.812C688.67 216.979 686.712 216.562 684.295 216.562C682.295 216.562 680.566 216.917 679.108 217.625C677.649 218.292 676.524 219.208 675.733 220.375C674.983 221.5 674.608 222.75 674.608 224.125C674.608 225.167 674.816 226.104 675.233 226.938C675.691 227.729 676.42 228.458 677.42 229.125C678.42 229.792 679.712 230.417 681.295 231C682.92 231.542 684.92 232.042 687.295 232.5C692.17 233.5 696.524 234.812 700.358 236.438C704.191 238.021 707.233 240.188 709.483 242.938C711.733 245.646 712.858 249.208 712.858 253.625C712.858 256.625 712.191 259.375 710.858 261.875C709.524 264.375 707.608 266.562 705.108 268.438C702.608 270.271 699.608 271.708 696.108 272.75C692.649 273.75 688.753 274.25 684.42 274.25C678.128 274.25 672.795 273.125 668.42 270.875C664.087 268.625 660.795 265.771 658.545 262.312C656.337 258.812 655.233 255.229 655.233 251.562H672.295C672.378 254.021 673.003 256 674.17 257.5C675.378 259 676.899 260.083 678.733 260.75C680.608 261.417 682.628 261.75 684.795 261.75C687.128 261.75 689.066 261.438 690.608 260.812C692.149 260.146 693.316 259.271 694.108 258.188C694.941 257.062 695.358 255.771 695.358 254.312ZM769.803 182V273H751.115V182H769.803ZM800.025 219.812V273H782.025V205.375H798.9L800.025 219.812ZM797.4 236.812H792.525C792.525 231.812 793.171 227.312 794.463 223.312C795.754 219.271 797.567 215.833 799.9 213C802.233 210.125 805.004 207.938 808.213 206.438C811.463 204.896 815.088 204.125 819.088 204.125C822.254 204.125 825.15 204.583 827.775 205.5C830.4 206.417 832.65 207.875 834.525 209.875C836.442 211.875 837.9 214.521 838.9 217.812C839.942 221.104 840.463 225.125 840.463 229.875V273H822.338V229.812C822.338 226.812 821.921 224.479 821.088 222.812C820.254 221.146 819.025 219.979 817.4 219.312C815.817 218.604 813.858 218.25 811.525 218.25C809.108 218.25 807.004 218.729 805.213 219.688C803.463 220.646 802.004 221.979 800.838 223.688C799.713 225.354 798.858 227.312 798.275 229.562C797.692 231.812 797.4 234.229 797.4 236.812ZM878.248 260.188C880.456 260.188 882.414 259.771 884.123 258.938C885.831 258.062 887.164 256.854 888.123 255.312C889.123 253.729 889.643 251.875 889.685 249.75H906.623C906.581 254.5 905.31 258.729 902.81 262.438C900.31 266.104 896.956 269 892.748 271.125C888.539 273.208 883.831 274.25 878.623 274.25C873.373 274.25 868.789 273.375 864.873 271.625C860.998 269.875 857.768 267.458 855.185 264.375C852.602 261.25 850.664 257.625 849.373 253.5C848.081 249.333 847.435 244.875 847.435 240.125V238.312C847.435 233.521 848.081 229.062 849.373 224.938C850.664 220.771 852.602 217.146 855.185 214.062C857.768 210.938 860.998 208.5 864.873 206.75C868.748 205 873.289 204.125 878.498 204.125C884.039 204.125 888.893 205.188 893.06 207.312C897.268 209.438 900.56 212.479 902.935 216.438C905.352 220.354 906.581 225 906.623 230.375H889.685C889.643 228.125 889.164 226.083 888.248 224.25C887.373 222.417 886.081 220.958 884.373 219.875C882.706 218.75 880.643 218.188 878.185 218.188C875.56 218.188 873.414 218.75 871.748 219.875C870.081 220.958 868.789 222.458 867.873 224.375C866.956 226.25 866.31 228.396 865.935 230.812C865.602 233.188 865.435 235.688 865.435 238.312V240.125C865.435 242.75 865.602 245.271 865.935 247.688C866.268 250.104 866.893 252.25 867.81 254.125C868.768 256 870.081 257.479 871.748 258.562C873.414 259.646 875.581 260.188 878.248 260.188ZM914.095 264.312C914.095 261.646 915.012 259.417 916.845 257.625C918.72 255.833 921.199 254.938 924.283 254.938C927.366 254.938 929.824 255.833 931.658 257.625C933.533 259.417 934.47 261.646 934.47 264.312C934.47 266.979 933.533 269.208 931.658 271C929.824 272.792 927.366 273.688 924.283 273.688C921.199 273.688 918.72 272.792 916.845 271C915.012 269.208 914.095 266.979 914.095 264.312Z" fill="#FB8C00"/>
</g>
<g filter="url(#filter1_d_4359_11)">
<path d="M1089.3 154.186L960.202 8.31364C957.346 5.08674 959.637 0 963.946 0H1009.09C1010.47 0 1011.8 0.577387 1012.75 1.59389L1154.65 154.094C1156.44 156.013 1156.44 158.987 1154.65 160.906L1012.75 313.406C1011.8 314.423 1010.47 315 1009.09 315H963.946C959.637 315 957.346 309.913 960.202 306.686L1089.3 160.814C1090.97 158.922 1090.97 156.078 1089.3 154.186Z" fill="#FB8C00"/>
</g>
<defs>
<filter id="filter0_d_4359_11" x="113.515" y="62" width="824.955" height="220.25" filterUnits="userSpaceOnUse" color-interpolation-filters="sRGB">
<feFlood flood-opacity="0" result="BackgroundImageFix"/>
<feColorMatrix in="SourceAlpha" type="matrix" values="0 0 0 0 0 0 0 0 0 0 0 0 0 0 0 0 0 0 127 0" result="hardAlpha"/>
<feOffset dy="4"/>
<feGaussianBlur stdDeviation="2"/>
<feComposite in2="hardAlpha" operator="out"/>
<feColorMatrix type="matrix" values="0 0 0 0 0 0 0 0 0 0 0 0 0 0 0 0 0 0 0.25 0"/>
<feBlend mode="normal" in2="BackgroundImageFix" result="effect1_dropShadow_4359_11"/>
<feBlend mode="normal" in="SourceGraphic" in2="effect1_dropShadow_4359_11" result="shape"/>
</filter>
<filter id="filter1_d_4359_11" x="954.937" y="0" width="205.056" height="323" filterUnits="userSpaceOnUse" color-interpolation-filters="sRGB">
<feFlood flood-opacity="0" result="BackgroundImageFix"/>
<feColorMatrix in="SourceAlpha" type="matrix" values="0 0 0 0 0 0 0 0 0 0 0 0 0 0 0 0 0 0 127 0" result="hardAlpha"/>
<feOffset dy="4"/>
<feGaussianBlur stdDeviation="2"/>
<feComposite in2="hardAlpha" operator="out"/>
<feColorMatrix type="matrix" values="0 0 0 0 0 0 0 0 0 0 0 0 0 0 0 0 0 0 0.25 0"/>
<feBlend mode="normal" in2="BackgroundImageFix" result="effect1_dropShadow_4359_11"/>
<feBlend mode="normal" in="SourceGraphic" in2="effect1_dropShadow_4359_11" result="shape"/>
</filter>
</defs>
</svg>
